# xmcd CD database file
#
# Track frame offsets:
#	150
#	12727
#	30693
#	58073
#	80366
#	95559
#	115634
#	137385
#	151725
#	172241
#	190513
#	210251
#	222875
#
# Disc length: 3123 seconds
#
# Revision: 0
# Processed by: cddbd v1.5.2PL0 Copyright (c) Steve Scherf et al.
# Submitted via: CDex 2.12
#
DISCID=a50c310d
DTITLE=Altan - Gleann Nimhe-The Poison Glen
DYEAR=2012
DGENRE=Celtique
TTITLE0=A Fig For A Kiss/The Turf Cutter (Slip Jigs)
TTITLE1=Seolta Geala
TTITLE2=The Ardara Girls/The Backdoor Highlands/Fascadh mo
TTITLE3=An Ghealog
TTITLE4=Caitlin Triall
TTITLE5=The New Rigged Ship/Eddie Curran's Monaghan Twig/K
TTITLE6=The Blackest Crow
TTITLE7=The Lancers Jig/The Further In The Deeper
TTITLE8=The Lily Of The West
TTITLE9=The Wheels Of The World (Reel)
TTITLE10=Cailin Deas Cruite na mBo
TTITLE11=Tommy Pott's Slip Jig
TTITLE12=The House On The Corner
EXTD=YEAR: 2012
EXTT0=
EXTT1=
EXTT2=
EXTT3=
EXTT4=
EXTT5=
EXTT6=
EXTT7=
EXTT8=
EXTT9=
EXTT10=
EXTT11=
EXTT12=
PLAYORDER=
